<svg xmlns:xlink="http://www.w3.org/1999/xlink" xmlns="http://www.w3.org/2000/svg" width="150" height="55" viewBox="0 0 110 33" fill="none"><path fill-rule="evenodd" clip-rule="evenodd" d="M15.2699 24.6008C14.3372 22.9245 13.4385 21.3703 12.6099 19.7811C12.568 19.6288 12.5602 19.4691 12.587 19.3135C12.6138 19.1578 12.6746 19.01 12.765 18.8804C14.1851 16.9386 15.255 14.7636 15.9264 12.4535C16.1865 11.6267 16.2494 10.7504 16.1102 9.89485C15.971 9.0393 15.6336 8.22819 15.1248 7.52639C14.6161 6.82459 13.9502 6.25158 13.1803 5.85319C12.4105 5.45479 11.5582 5.24207 10.6914 5.23203C8.0444 5.11594 4.24751 8.01815 5.26729 11.9892C5.49607 12.9448 5.84441 13.8678 6.30408 14.7363C8.54478 18.7263 10.8465 22.6663 13.1483 26.6223C13.2789 26.8002 13.3493 27.0151 13.3493 27.2358C13.3493 27.4565 13.2789 27.6714 13.1483 27.8493C12.2846 29.2313 11.472 30.6514 10.5743 32.1685C9.14024 29.8668 7.68913 27.7282 6.42817 25.4634C4.54173 22.0789 2.60626 18.7103 1.01705 15.1856C0.32617 13.7317 -0.021446 12.1385 0.00102396 10.529C0.0234939 8.9194 0.415449 7.33652 1.14664 5.90247C1.87784 4.46841 2.92873 3.22151 4.21822 2.25799C5.50771 1.29446 7.00132 0.64007 8.58381 0.345305C11.3807 -0.166005 14.2665 0.442092 16.6192 2.03853C18.9719 3.63497 20.6032 6.09191 21.1614 8.87981C21.5011 10.7324 21.3958 12.6391 20.8542 14.443C19.6333 18.1436 17.7402 21.5871 15.2699 24.6008Z" fill="#9548E4"></path><path fill-rule="evenodd" clip-rule="evenodd" d="M27.7773 8.39554C27.2249 8.36051 26.8096 8.3435 26.3262 8.32649V5.7175C26.5854 5.70049 26.8967 5.66546 27.1899 5.66546C29.5917 5.66546 31.9936 5.64845 34.3954 5.66546C37.3977 5.68247 39.4923 7.96721 39.4923 11.2107C39.4923 14.4241 37.3676 16.7389 34.3784 16.7559C33.3075 16.7729 32.2187 16.7559 31.0268 16.7559V22.5433H27.7773V8.39554ZM31.0598 8.36051V14.0088C32.0446 14.0088 32.9613 14.0779 33.862 13.9918C35.3991 13.8707 36.2288 12.7308 36.1767 10.9685C36.1963 10.6376 36.1484 10.3062 36.0359 9.99436C35.9235 9.68254 35.7489 9.39681 35.5227 9.15451C35.2965 8.91222 35.0234 8.71841 34.7201 8.58484C34.4167 8.45128 34.0893 8.38075 33.7579 8.37753C32.8742 8.32649 32.0096 8.36051 31.0598 8.36051Z" fill="#9548E4"></path><path fill-rule="evenodd" clip-rule="evenodd" d="M64.7134 12.7137C64.299 13.1835 63.9397 13.6993 63.6426 14.2509C62.2415 17.6535 60.9475 21.0921 59.5485 24.4957C58.1834 27.7982 54.6247 28.6939 51.9987 26.3441C52.379 25.6525 52.7593 24.927 53.1386 24.2195C55.1942 25.4464 56.335 25.1001 57.0776 23.0105C57.1874 22.6266 57.1569 22.2161 56.9915 21.8527C55.8337 19.1746 54.6598 16.5146 53.4328 13.8716C53.1841 13.4243 52.7777 13.0857 52.2929 12.9219V10.451C53.1502 10.3726 54.0135 10.39 54.8669 10.503C55.1236 10.6175 55.355 10.7818 55.5478 10.9864C55.7405 11.191 55.8908 11.4318 55.9898 11.6949C56.9395 13.9576 57.8041 16.2384 58.7539 18.6572C59.4964 16.4635 60.205 14.425 60.9135 12.3864C61.6041 10.3849 61.6221 10.3849 63.7297 10.3849H64.9216V12.8558C64.8695 12.8178 64.8005 12.7657 64.7134 12.7137Z" fill="#9548E4"></path><path fill-rule="evenodd" clip-rule="evenodd" d="M51.9819 20.0222V22.4241C49.5981 23.0806 48.1119 22.6662 47.5595 21.2151C45.8322 22.8904 43.8277 23.3398 41.9793 22.4591C41.3475 22.201 40.8066 21.7612 40.4252 21.1953C40.0437 20.6295 39.8389 19.9631 39.8366 19.2807C39.7454 18.596 39.8864 17.9005 40.2371 17.3054C40.5878 16.7103 41.1279 16.25 41.7711 15.9982C43.2848 15.5197 44.8323 15.1557 46.4006 14.9093C46.7049 14.8748 47.0121 14.8748 47.3163 14.9093C47.4894 13.5443 46.9711 12.7667 45.8302 12.5775C44.5002 12.3534 43.8287 12.7507 43.5284 13.9786H40.9615C40.4091 12.1302 40.9445 10.8512 42.7929 10.506C44.3498 10.2155 45.9447 10.1921 47.5095 10.4369C49.462 10.7652 50.5328 12.3894 50.5848 14.497C50.6198 15.8621 50.6539 17.2271 50.5848 18.5741C50.4957 19.5559 50.7029 20.2124 51.9819 20.0222ZM47.4214 17.0199C46.3206 17.1751 45.2788 17.2271 44.294 17.4693C44.0828 17.4901 43.8786 17.5564 43.6955 17.6636C43.5124 17.7709 43.3546 17.9166 43.2332 18.0906C43.1117 18.2647 43.0294 18.4629 42.992 18.6718C42.9545 18.8807 42.9627 19.0953 43.016 19.3007C43.1541 19.7154 43.4464 20.0611 43.8325 20.2661C44.2186 20.471 44.6688 20.5195 45.0896 20.4015C46.4657 20.1603 47.4204 18.8653 47.4204 17.0169L47.4214 17.0199Z" fill="#9548E4"></path><path fill-rule="evenodd" clip-rule="evenodd" d="M79.8131 22.8545C78.9852 22.8489 78.1664 22.6802 77.4037 22.3581C76.6409 22.0361 75.949 21.5669 75.3676 20.9775C74.1932 19.787 73.5399 18.1788 73.5514 16.5067C73.5628 14.8346 74.238 13.2354 75.4284 12.0611C76.6189 10.8868 78.227 10.2335 79.8992 10.2449C81.5713 10.2563 83.1705 10.9315 84.3448 12.122C85.5191 13.3124 86.1724 14.9206 86.161 16.5928C86.1496 18.2649 85.4743 19.864 84.2839 21.0383C83.0934 22.2126 81.4853 22.8659 79.8131 22.8545ZM75.2346 16.5147C75.2055 17.1363 75.3022 17.7574 75.5192 18.3406C75.7361 18.9239 76.0688 19.4572 76.4971 19.9086C76.9254 20.3601 77.4405 20.7203 78.0116 20.9675C78.5826 21.2148 79.1978 21.3441 79.82 21.3476C80.4423 21.3511 81.0589 21.2288 81.6327 20.988C82.2065 20.7471 82.7256 20.3928 83.159 19.9462C83.5924 19.4997 83.931 18.9701 84.1545 18.3893C84.378 17.8086 84.4818 17.1886 84.4597 16.5667C84.4769 15.9575 84.3717 15.3509 84.1502 14.783C83.9287 14.2152 83.5953 13.6976 83.17 13.261C82.7447 12.8244 82.236 12.4776 81.6742 12.2413C81.1123 12.005 80.5087 11.8839 79.8992 11.8852C79.2827 11.8598 78.6676 11.9619 78.0925 12.1851C77.5173 12.4084 76.9944 12.748 76.5565 13.1827C76.1187 13.6173 75.7753 14.1377 75.5478 14.7112C75.3203 15.2848 75.2137 15.8991 75.2346 16.5157V16.5147Z" fill="#9548E4"></path><path fill-rule="evenodd" clip-rule="evenodd" d="M87.2418 11.903V10.642C87.344 10.5844 87.4548 10.5435 87.57 10.5209C90.2821 10.3478 90.4892 10.5379 90.4892 13.251C90.4892 14.9613 90.4892 16.6716 90.5233 18.3649C90.5923 20.8668 92.1996 21.9236 94.5263 20.9739C95.4076 20.62 96.157 20.0009 96.6708 19.2023C97.1847 18.4037 97.4376 17.4652 97.3945 16.5165C97.4805 14.582 97.4115 12.6295 97.4115 10.591H99.0868V19.4487C99.0868 21.0209 99.0868 21.0209 100.642 21.2501V22.441C98.2581 23.0415 97.6016 22.6652 97.3394 20.4025C96.8003 21.2554 96.0307 21.9384 95.1197 22.3724C94.2088 22.8065 93.1936 22.9739 92.1915 22.8553C91.3272 22.8634 90.4945 22.5307 89.8738 21.9293C89.253 21.3278 88.8942 20.506 88.875 19.6419C88.7539 17.6404 88.806 15.5988 88.789 13.5953C88.779 12.0931 88.7789 12.0931 87.2418 11.903Z" fill="#9548E4"></path><path fill-rule="evenodd" clip-rule="evenodd" d="M72.12 22.6494C69.1657 23.0297 67.3163 21.5265 67.2482 18.6934C67.1962 16.845 67.2312 14.9966 67.2312 13.1652V11.9893C66.6788 11.9542 66.2305 11.9372 65.7111 11.9032V10.5382C66.1604 10.5031 66.6268 10.4691 67.2122 10.4171V7.34573C68.8535 6.94542 68.9225 7.00046 68.9225 8.53763V10.4211H71.8247V11.9072H69.0226C69.0226 14.3951 68.8845 16.7959 69.0746 19.1627C69.2128 20.787 70.5608 21.2873 72.115 21.2013L72.12 22.6494Z" fill="#9548E4"></path><path fill-rule="evenodd" clip-rule="evenodd" d="M104.811 12.957C105.812 11.2117 107.04 10.2099 109.061 10.5041V12.0053C105.986 12.6618 104.794 14.1479 104.742 17.4304C104.725 19.1057 104.742 20.765 104.742 22.5093H103.066V13.8727C103.066 12.1794 103.066 12.1794 101.476 11.8341C101.576 11.3508 101.01 10.6252 102.047 10.5041C104.12 10.2439 104.622 10.6412 104.811 12.957Z" fill="#9548E4"></path></svg>